# Blender 3.3.1
# www.blender.org
o LightCone
v 0.000000 0.475000 0.000000
v -0.000000 -0.000000 -0.200000
v 0.000000 0.475000 -2.600000
v 0.076537 -0.000000 -0.184776
v 0.994977 0.475000 -2.402087
v 0.141421 -0.000000 -0.141421
v 1.838477 0.475000 -1.838477
v 0.184776 -0.000000 -0.076537
v 2.402087 0.475000 -0.994977
v 0.200000 -0.000000 0.000000
v 2.600000 0.475000 -0.000000
v 0.184776 -0.000000 0.076537
v 2.402087 0.475000 0.994977
v 0.141421 -0.000000 0.141421
v 1.838477 0.475000 1.838477
v 0.076537 -0.000000 0.184776
v 0.994977 0.475000 2.402087
v -0.000000 -0.000000 0.200000
v 0.000000 0.475000 2.600000
v -0.076537 -0.000000 0.184776
v -0.994977 0.475000 2.402087
v -0.141421 -0.000000 0.141421
v -1.838477 0.475000 1.838477
v -0.184776 -0.000000 0.076537
v -2.402087 0.475000 0.994977
v -0.200000 -0.000000 0.000000
v -2.600000 0.475000 -0.000000
v -0.184776 -0.000000 -0.076537
v -2.402087 0.475000 -0.994977
v -0.141421 -0.000000 -0.141421
v -1.838477 0.475000 -1.838477
v -0.076537 -0.000000 -0.184776
v -0.994977 0.475000 -2.402087
v 0.038268 -0.000000 -0.192388
v 0.506639 0.475000 -2.547045
v 0.108979 -0.000000 -0.163099
v 1.442785 0.475000 -2.159281
v 0.163099 -0.000000 -0.108979
v 2.159281 0.475000 -1.442785
v 0.192388 -0.000000 -0.038268
v 2.547045 0.475000 -0.506639
v 0.192388 -0.000000 0.038268
v 2.547045 0.475000 0.506639
v 0.163099 -0.000000 0.108979
v 2.159281 0.475000 1.442785
v 0.108979 -0.000000 0.163099
v -0.000000 0.475000 -0.000000
v 1.442785 0.475000 2.159281
v 0.038268 -0.000000 0.192388
v 0.506639 0.475000 2.547045
v -0.038268 -0.000000 0.192388
v -0.506639 0.475000 2.547045
v -0.108979 -0.000000 0.163099
v -1.442785 0.475000 2.159281
v -0.163099 -0.000000 0.108979
v -2.159281 0.475000 1.442785
v -0.192388 -0.000000 0.038268
v -2.547045 0.475000 0.506639
v -0.192388 -0.000000 -0.038268
v -2.547045 0.475000 -0.506639
v -0.163099 -0.000000 -0.108979
v -2.159281 0.475000 -1.442785
v -0.108979 -0.000000 -0.163099
v -1.442785 0.475000 -2.159281
v -0.038268 -0.000000 -0.192388
v -0.506639 0.475000 -2.547045
vn 0.0215 -0.9808 -0.1938
vn 0.0941 -0.9808 -0.1708
vn 0.1523 -0.9808 -0.1218
vn 0.1873 -0.9808 -0.0543
vn 0.1938 -0.9808 0.0215
vn 0.1708 -0.9808 0.0941
vn 0.1218 -0.9808 0.1523
vn 0.0543 -0.9808 0.1873
vn -0.0215 -0.9808 0.1938
vn -0.0941 -0.9808 0.1708
vn -0.1523 -0.9808 0.1218
vn -0.1873 -0.9808 0.0543
vn -0.1938 -0.9808 -0.0215
vn -0.1708 -0.9808 -0.0941
vn -0.1218 -0.9808 -0.1523
vn -0.0543 -0.9808 -0.1873
vn -0.0941 -0.9808 -0.1708
vn -0.0000 1.0000 -0.0000
vn -0.1523 -0.9808 -0.1218
vn -0.1873 -0.9808 -0.0543
vn -0.1938 -0.9808 0.0215
vn -0.1708 -0.9808 0.0941
vn -0.1218 -0.9808 0.1523
vn -0.0543 -0.9808 0.1873
vn 0.0215 -0.9808 0.1938
vn 0.0941 -0.9808 0.1708
vn 0.1523 -0.9808 0.1218
vn 0.1873 -0.9808 0.0543
vn 0.1938 -0.9808 -0.0215
vn 0.1708 -0.9808 -0.0941
vn 0.1218 -0.9808 -0.1523
vn 0.0543 -0.9808 -0.1873
vn -0.0215 -0.9808 -0.1938
vt 1.000000 0.500000
vt 0.000000 0.500000
vt 1.000000 1.000000
vt 0.250000 0.490000
vt 0.000000 1.000000
vt 0.937500 0.500000
vt 0.937500 1.000000
vt 0.341844 0.471731
vt 0.875000 0.500000
vt 0.875000 1.000000
vt 0.419706 0.419706
vt 0.812500 0.500000
vt 0.812500 1.000000
vt 0.471731 0.341844
vt 0.750000 0.500000
vt 0.750000 1.000000
vt 0.490000 0.250000
vt 0.687500 0.500000
vt 0.687500 1.000000
vt 0.471731 0.158156
vt 0.625000 0.500000
vt 0.625000 1.000000
vt 0.419706 0.080294
vt 0.562500 0.500000
vt 0.562500 1.000000
vt 0.341844 0.028269
vt 0.500000 0.500000
vt 0.500000 1.000000
vt 0.250000 0.010000
vt 0.437500 0.500000
vt 0.437500 1.000000
vt 0.158156 0.028269
vt 0.375000 0.500000
vt 0.375000 1.000000
vt 0.080294 0.080294
vt 0.312500 0.500000
vt 0.312500 1.000000
vt 0.028269 0.158156
vt 0.250000 0.500000
vt 0.250000 1.000000
vt 0.010000 0.250000
vt 0.187500 0.500000
vt 0.187500 1.000000
vt 0.028269 0.341844
vt 0.125000 0.500000
vt 0.125000 1.000000
vt 0.080294 0.419706
vt 0.062500 0.500000
vt 0.062500 1.000000
vt 0.158156 0.471731
vt 0.968750 0.500000
vt 0.968750 1.000000
vt 0.295922 0.480866
vt 0.906250 0.500000
vt 0.906250 1.000000
vt 0.380775 0.445718
vt 0.843750 0.500000
vt 0.843750 1.000000
vt 0.445718 0.380775
vt 0.781250 0.500000
vt 0.781250 1.000000
vt 0.480866 0.295922
vt 0.718750 0.500000
vt 0.718750 1.000000
vt 0.480866 0.204078
vt 0.656250 0.500000
vt 0.656250 1.000000
vt 0.445718 0.119225
vt 0.593750 0.500000
vt 0.250000 0.250000
vt 0.593750 1.000000
vt 0.380775 0.054282
vt 0.531250 0.500000
vt 0.531250 1.000000
vt 0.295922 0.019134
vt 0.468750 0.500000
vt 0.468750 1.000000
vt 0.204078 0.019134
vt 0.406250 0.500000
vt 0.406250 1.000000
vt 0.119225 0.054282
vt 0.343750 0.500000
vt 0.343750 1.000000
vt 0.054282 0.119225
vt 0.281250 0.500000
vt 0.281250 1.000000
vt 0.019134 0.204078
vt 0.218750 0.500000
vt 0.218750 1.000000
vt 0.019134 0.295922
vt 0.156250 0.500000
vt 0.156250 1.000000
vt 0.054282 0.380775
vt 0.093750 0.500000
vt 0.093750 1.000000
vt 0.119225 0.445718
vt 0.031250 0.500000
vt 0.204078 0.480866
vt 0.031250 1.000000
s 0
f 3/3/1 35/52/1 34/51/1 2/1/1
f 4/6/2 5/7/2 37/55/2 36/54/2
f 6/9/3 7/10/3 39/58/3 38/57/3
f 8/12/4 9/13/4 41/61/4 40/60/4
f 10/15/5 11/16/5 43/64/5 42/63/5
f 12/18/6 13/19/6 45/67/6 44/66/6
f 14/21/7 15/22/7 48/71/7 46/69/7
f 16/24/8 17/25/8 50/74/8 49/73/8
f 18/27/9 19/28/9 52/77/9 51/76/9
f 20/30/10 21/31/10 54/80/10 53/79/10
f 22/33/11 23/34/11 56/83/11 55/82/11
f 24/36/12 25/37/12 58/86/12 57/85/12
f 26/39/13 27/40/13 60/89/13 59/88/13
f 28/42/14 29/43/14 62/92/14 61/91/14
f 30/45/15 31/46/15 64/95/15 63/94/15
f 32/48/16 33/49/16 66/99/16 65/97/16
f 63/94/17 64/95/17 33/49/17 32/48/17
f 47/70/18 66/98/18 33/50/18
f 47/70/18 3/4/18 66/98/18
f 61/91/19 62/92/19 31/46/19 30/45/19
f 47/70/18 64/96/18 31/47/18
f 47/70/18 33/50/18 64/96/18
f 59/88/20 60/89/20 29/43/20 28/42/20
f 47/70/18 62/93/18 29/44/18
f 47/70/18 31/47/18 62/93/18
f 57/85/21 58/86/21 27/40/21 26/39/21
f 47/70/18 60/90/18 27/41/18
f 47/70/18 29/44/18 60/90/18
f 55/82/22 56/83/22 25/37/22 24/36/22
f 47/70/18 58/87/18 25/38/18
f 47/70/18 27/41/18 58/87/18
f 53/79/23 54/80/23 23/34/23 22/33/23
f 47/70/18 56/84/18 23/35/18
f 47/70/18 25/38/18 56/84/18
f 51/76/24 52/77/24 21/31/24 20/30/24
f 47/70/18 54/81/18 21/32/18
f 47/70/18 23/35/18 54/81/18
f 49/73/25 50/74/25 19/28/25 18/27/25
f 47/70/18 52/78/18 19/29/18
f 47/70/18 21/32/18 52/78/18
f 46/69/26 48/71/26 17/25/26 16/24/26
f 47/70/18 50/75/18 17/26/18
f 47/70/18 19/29/18 50/75/18
f 44/66/27 45/67/27 15/22/27 14/21/27
f 47/70/18 48/72/18 15/23/18
f 47/70/18 17/26/18 48/72/18
f 42/63/28 43/64/28 13/19/28 12/18/28
f 47/70/18 45/68/18 13/20/18
f 47/70/18 15/23/18 45/68/18
f 40/60/29 41/61/29 11/16/29 10/15/29
f 47/70/18 43/65/18 11/17/18
f 47/70/18 13/20/18 43/65/18
f 38/57/30 39/58/30 9/13/30 8/12/30
f 47/70/18 41/62/18 9/14/18
f 47/70/18 11/17/18 41/62/18
f 36/54/31 37/55/31 7/10/31 6/9/31
f 47/70/18 39/59/18 7/11/18
f 47/70/18 9/14/18 39/59/18
f 34/51/32 35/52/32 5/7/32 4/6/32
f 47/70/18 37/56/18 5/8/18
f 47/70/18 7/11/18 37/56/18
f 47/70/18 35/53/18 3/4/18
f 47/70/18 5/8/18 35/53/18
f 65/97/33 66/99/33 3/5/33 2/2/33
l 1 47
