# Blender 3.3.1
# www.blender.org
o Ship
v 0.000000 0.000000 0.000000
v 0.000000 0.112500 -0.100000
v 0.000000 0.000000 -0.500000
v 0.000000 0.112500 -0.312500
v 0.129136 0.016009 -0.025000
v 0.129136 0.075000 -0.025000
v 0.129136 0.008282 -0.285623
v 0.129136 0.051662 -0.203051
v 0.073104 0.100000 -0.300000
v 0.073104 0.000000 -0.352214
v 0.129136 0.000000 0.000000
v 0.073104 0.100000 0.000000
v 0.250000 0.016009 -0.025000
v 0.250000 0.025082 -0.025000
v 0.250000 0.016009 -0.046941
v 0.250000 0.025082 -0.046941
v 0.000000 0.187500 0.000000
v -0.129136 0.016009 -0.025000
v -0.129136 0.075000 -0.025000
v -0.129136 0.008282 -0.285623
v -0.129136 0.051662 -0.203051
v -0.073104 0.100000 -0.300000
v -0.073104 0.000000 -0.352214
v -0.129136 0.000000 0.000000
v -0.073104 0.100000 0.000000
v -0.250000 0.016009 -0.025000
v -0.250000 0.025082 -0.025000
v -0.250000 0.016009 -0.046941
v -0.250000 0.025082 -0.046941
vn 0.6205 0.5868 -0.5202
vn 0.6855 0.6146 -0.3904
vn 0.6916 0.5778 -0.4334
vn -0.0000 -1.0000 -0.0000
vn 0.1685 0.9857 -0.0000
vn 0.7945 0.4160 -0.4425
vn 0.4140 -0.9099 -0.0264
vn 0.5651 0.8240 -0.0402
vn 0.6679 0.2354 0.7061
vn 1.0000 -0.0000 -0.0000
vn -0.0000 -0.0000 1.0000
vn 0.0050 -0.9996 0.0273
vn 0.3627 0.9256 -0.1080
vn -0.6205 0.5868 -0.5202
vn -0.6855 0.6146 -0.3904
vn -0.6916 0.5778 -0.4334
vn -0.1685 0.9857 -0.0000
vn -0.7945 0.4160 -0.4425
vn -0.4140 -0.9099 -0.0264
vn -0.5651 0.8240 -0.0402
vn -0.6679 0.2354 0.7061
vn -1.0000 -0.0000 -0.0000
vn -0.0050 -0.9996 0.0273
vn -0.3627 0.9256 -0.1080
vt 0.125000 0.750000
vt 0.875000 0.750000
vt 0.375000 0.250000
vt 0.125000 0.500000
vt 0.625000 0.250000
vt 0.875000 0.500000
vt 0.475000 0.700000
vt 0.525000 0.700000
vt 0.475000 0.550000
vt 0.525000 0.550000
vt 0.625000 0.500000
vt 0.375000 0.500000
vt 0.375000 0.750000
vt 0.625000 0.750000
vt 0.475000 0.700000
vt 0.525000 0.700000
vt 0.475000 0.550000
vt 0.525000 0.550000
vt 0.000000 0.000000
vt 0.475000 0.700000
vt 0.525000 0.700000
vt 0.475000 0.550000
vt 0.525000 0.550000
vt 0.625000 0.500000
vt 0.375000 0.500000
vt 0.375000 0.750000
vt 0.625000 0.750000
vt 0.475000 0.700000
vt 0.525000 0.700000
vt 0.475000 0.550000
vt 0.525000 0.550000
s 0
f 3/3/1 4/5/1 9/11/1 10/12/1
f 7/9/2 8/10/2 16/18/2 15/17/2
f 2/2/3 17/19/3 12/14/3
f 3/4/4 10/12/4 11/13/4 1/1/4
f 9/11/5 4/6/5 2/2/5 12/14/5
f 8/10/6 7/9/6 10/12/6 9/11/6
f 7/9/7 5/7/7 11/13/7 10/12/7
f 6/8/8 8/10/8 9/11/8 12/14/8
f 5/7/9 6/8/9 12/14/9 11/13/9
f 15/17/10 16/18/10 14/16/10 13/15/10
f 6/8/11 5/7/11 13/15/11 14/16/11
f 5/7/12 7/9/12 15/17/12 13/15/12
f 8/10/13 6/8/13 14/16/13 16/18/13
f 12/14/11 17/19/11 1/1/11 11/13/11
f 3/3/14 23/25/14 22/24/14 4/5/14
f 20/22/15 28/30/15 29/31/15 21/23/15
f 2/2/16 25/27/16 17/19/16
f 3/4/4 1/1/4 24/26/4 23/25/4
f 22/24/17 25/27/17 2/2/17 4/6/17
f 21/23/18 22/24/18 23/25/18 20/22/18
f 20/22/19 23/25/19 24/26/19 18/20/19
f 19/21/20 25/27/20 22/24/20 21/23/20
f 18/20/21 24/26/21 25/27/21 19/21/21
f 28/30/22 26/28/22 27/29/22 29/31/22
f 19/21/11 27/29/11 26/28/11 18/20/11
f 18/20/23 26/28/23 28/30/23 20/22/23
f 21/23/24 29/31/24 27/29/24 19/21/24
f 25/27/11 24/26/11 1/1/11 17/19/11
